<svg xmlns="http://www.w3.org/2000/svg" xmlns:xlink="http://www.w3.org/1999/xlink" width="1000" zoomAndPan="magnify" viewBox="0 0 750 374.999991" height="500" preserveAspectRatio="xMidYMid meet" version="1.0"><defs><g/><clipPath id="84c15f8e48"><path d="M 51 154.722656 L 91 154.722656 L 91 219.972656 L 51 219.972656 Z M 51 154.722656 " clip-rule="nonzero"/></clipPath><clipPath id="a66bd80a6b"><path d="M 58 154.722656 L 98 154.722656 L 98 219.972656 L 58 219.972656 Z M 58 154.722656 " clip-rule="nonzero"/></clipPath><clipPath id="edbfa45a87"><path d="M 79 190 L 98 190 L 98 219.972656 L 79 219.972656 Z M 79 190 " clip-rule="nonzero"/></clipPath><clipPath id="b09eb74d08"><path d="M 76 196 L 91 196 L 91 219.972656 L 76 219.972656 Z M 76 196 " clip-rule="nonzero"/></clipPath><clipPath id="f00f0f126e"><path d="M 72 202 L 85 202 L 85 219.972656 L 72 219.972656 Z M 72 202 " clip-rule="nonzero"/></clipPath><clipPath id="1587722b09"><path d="M 57 154.722656 L 62 154.722656 L 62 190 L 57 190 Z M 57 154.722656 " clip-rule="nonzero"/></clipPath><clipPath id="0c3a73b774"><path d="M 51 154.722656 L 55 154.722656 L 55 202 L 51 202 Z M 51 154.722656 " clip-rule="nonzero"/></clipPath><clipPath id="f8ef3531b9"><path d="M 44.039062 154.722656 L 49 154.722656 L 49 214 L 44.039062 214 Z M 44.039062 154.722656 " clip-rule="nonzero"/></clipPath><clipPath id="f0e5be436b"><path d="M 44.039062 154.722656 L 84 154.722656 L 84 219.972656 L 44.039062 219.972656 Z M 44.039062 154.722656 " clip-rule="nonzero"/></clipPath></defs><g clip-path="url(#84c15f8e48)"><path fill="#0d6efd" d="M 61.125 201.824219 L 51.222656 219.972656 C 52.421875 219.972656 53.652344 219.972656 54.851562 219.972656 C 59.921875 210.691406 64.964844 201.40625 70.035156 192.152344 L 70.484375 191.351562 L 71.082031 190.253906 L 71.953125 188.652344 L 72.195312 188.210938 L 72.644531 187.378906 C 78.582031 176.492188 84.492188 165.609375 90.433594 154.753906 C 89.234375 154.753906 88.003906 154.753906 86.804688 154.753906 C 80.863281 165.636719 74.953125 176.523438 69.011719 187.378906 L 62.59375 199.152344 L 62.261719 199.746094 L 61.125 201.851562 Z M 61.125 201.824219 " fill-opacity="1" fill-rule="evenodd"/></g><g clip-path="url(#a66bd80a6b)"><path fill="#0d6efd" d="M 75.914062 194.050781 L 76.304688 193.339844 L 76.695312 192.597656 L 76.785156 192.449219 L 77.742188 190.671875 L 79.542969 187.347656 L 90.464844 167.328125 L 93.734375 161.335938 L 94.8125 159.320312 L 95.085938 158.816406 L 97.242188 154.785156 C 96.042969 154.785156 94.8125 154.785156 93.613281 154.785156 L 93.195312 155.554688 L 92.773438 156.296875 L 92.652344 156.503906 L 91.933594 157.808594 L 91.515625 158.609375 L 91.125 159.351562 L 91.09375 159.410156 L 90.585938 160.328125 L 90.523438 160.449219 L 90.042969 161.308594 L 89.984375 161.457031 C 85.273438 170.117188 80.535156 178.777344 75.824219 187.410156 L 68.023438 201.703125 L 67.273438 203.066406 L 67.003906 203.574219 L 58.035156 220.035156 L 61.664062 220.035156 C 65.414062 213.152344 69.164062 206.269531 72.914062 199.390625 L 73.0625 199.125 L 73.332031 198.621094 L 73.605469 198.113281 L 74.144531 197.105469 L 74.355469 196.722656 L 75.792969 194.109375 Z M 75.914062 194.050781 " fill-opacity="1" fill-rule="evenodd"/></g><g clip-path="url(#edbfa45a87)"><path fill="#0d6efd" d="M 79.515625 193.875 L 93.734375 219.972656 C 94.933594 219.972656 96.164062 219.972656 97.363281 219.972656 L 81.3125 190.550781 Z M 79.515625 193.875 " fill-opacity="1" fill-rule="evenodd"/></g><g clip-path="url(#b09eb74d08)"><path fill="#0d6efd" d="M 90.824219 219.972656 L 78.042969 196.542969 L 76.242188 199.863281 L 87.195312 219.972656 C 88.394531 219.972656 89.625 219.972656 90.824219 219.972656 Z M 90.824219 219.972656 " fill-opacity="1" fill-rule="evenodd"/></g><g clip-path="url(#f00f0f126e)"><path fill="#0d6efd" d="M 84.3125 219.972656 L 74.773438 202.535156 L 72.972656 205.855469 L 80.683594 219.972656 Z M 84.3125 219.972656 " fill-opacity="1" fill-rule="evenodd"/></g><g clip-path="url(#1587722b09)"><path fill="#0d6efd" d="M 57.761719 189.601562 L 61.394531 182.960938 L 61.394531 154.722656 L 57.761719 154.722656 Z M 57.761719 189.601562 " fill-opacity="1" fill-rule="evenodd"/></g><g clip-path="url(#0c3a73b774)"><path fill="#0d6efd" d="M 54.882812 194.941406 L 54.882812 154.722656 L 51.253906 154.722656 L 51.253906 201.585938 Z M 54.882812 194.941406 " fill-opacity="1" fill-rule="evenodd"/></g><g clip-path="url(#f8ef3531b9)"><path fill="#0d6efd" d="M 48.34375 206.925781 L 48.34375 154.722656 L 44.714844 154.722656 L 44.714844 213.566406 Z M 48.34375 206.925781 " fill-opacity="1" fill-rule="evenodd"/></g><g clip-path="url(#f0e5be436b)"><path fill="#0d6efd" d="M 80.292969 154.722656 C 81.492188 154.722656 82.695312 154.722656 83.925781 154.722656 C 77.984375 165.609375 72.042969 176.492188 66.132812 187.347656 L 59.832031 198.914062 L 58.363281 201.613281 L 58.363281 201.644531 L 48.375 219.972656 C 47.171875 219.972656 45.941406 219.972656 44.742188 219.972656 L 45.28125 218.964844 L 45.851562 217.957031 L 46.125 217.453125 L 46.394531 216.949219 L 48.34375 213.359375 L 51.253906 208.019531 L 52.785156 205.234375 L 53.054688 204.730469 L 54.433594 202.179688 L 54.703125 201.675781 L 54.851562 201.378906 L 54.972656 201.171875 L 55.242188 200.664062 L 55.511719 200.160156 L 55.785156 199.65625 L 57.941406 195.625 L 58.214844 195.121094 L 58.484375 194.617188 L 58.753906 194.109375 L 59.5625 192.597656 L 60.132812 191.589844 L 60.671875 190.582031 L 60.945312 190.078125 L 61.214844 189.574219 L 61.242188 189.542969 L 61.511719 189.070312 L 61.785156 188.566406 L 62.054688 188.0625 L 62.324219 187.554688 L 62.503906 187.261719 L 62.625 187.050781 L 62.683594 186.933594 L 62.863281 186.636719 L 62.921875 186.546875 L 63.042969 186.339844 L 63.195312 186.042969 L 63.375 185.746094 L 63.492188 185.539062 L 63.554688 185.421875 L 63.734375 185.125 L 63.792969 185.035156 L 63.914062 184.828125 L 64.0625 184.53125 L 64.0625 184.5 L 64.242188 184.203125 L 64.332031 184.027344 L 64.394531 183.910156 L 64.574219 183.613281 L 64.601562 183.523438 L 64.722656 183.285156 L 64.875 182.988281 L 64.875 182.960938 L 65.054688 182.664062 L 65.203125 182.367188 L 65.382812 182.070312 L 65.414062 182.011719 L 65.535156 181.773438 L 65.683594 181.507812 L 65.714844 181.476562 L 65.894531 181.179688 L 65.984375 181 L 66.074219 180.855469 L 66.253906 180.558594 L 66.402344 180.261719 L 66.554688 179.992188 L 66.582031 179.964844 L 66.761719 179.667969 L 66.855469 179.519531 L 67.125 179.074219 L 67.152344 179.015625 L 67.304688 178.746094 L 67.453125 178.480469 L 67.484375 178.421875 L 68.023438 177.53125 L 68.054688 177.472656 L 68.203125 177.207031 L 68.355469 176.96875 L 68.382812 176.910156 L 68.652344 176.464844 L 68.742188 176.285156 L 68.921875 175.988281 L 68.953125 175.960938 L 69.105469 175.691406 L 69.253906 175.394531 L 69.433594 175.101562 L 69.492188 174.953125 L 69.582031 174.773438 L 69.761719 174.476562 L 69.792969 174.445312 L 69.945312 174.179688 L 70.0625 173.941406 L 70.09375 173.855469 L 70.273438 173.558594 L 70.332031 173.4375 L 70.421875 173.261719 L 70.605469 172.964844 L 70.605469 172.933594 L 70.753906 172.636719 L 70.875 172.429688 L 70.933594 172.339844 L 71.113281 172.042969 L 71.171875 171.925781 L 71.261719 171.75 L 71.445312 171.453125 L 71.59375 171.15625 L 71.714844 170.949219 L 71.773438 170.859375 L 71.953125 170.5625 L 72.011719 170.441406 L 72.132812 170.234375 L 72.492188 169.640625 L 72.613281 169.433594 L 72.671875 169.347656 L 72.855469 169.050781 L 72.914062 168.960938 L 73.035156 168.753906 L 73.183594 168.457031 L 73.363281 168.160156 L 73.605469 167.746094 L 73.722656 167.535156 L 73.785156 167.449219 L 73.84375 167.359375 L 73.964844 167.152344 L 74.082031 166.945312 L 74.203125 166.734375 L 74.324219 166.527344 L 74.382812 166.410156 L 74.445312 166.320312 L 74.5625 166.113281 L 74.683594 165.90625 L 74.773438 165.726562 L 74.894531 165.519531 L 74.953125 165.402344 L 75.015625 165.3125 L 75.132812 165.105469 L 75.253906 164.898438 L 75.253906 164.867188 L 75.34375 164.6875 L 75.464844 164.480469 L 75.523438 164.363281 L 75.554688 164.273438 L 75.671875 164.066406 L 75.792969 163.859375 L 75.824219 163.828125 L 75.914062 163.652344 L 76.035156 163.445312 L 76.09375 163.296875 L 76.125 163.234375 L 76.242188 163.027344 L 76.363281 162.820312 L 76.394531 162.792969 L 76.484375 162.613281 L 76.605469 162.40625 L 76.695312 162.257812 L 76.722656 162.199219 L 76.84375 161.992188 L 76.964844 161.78125 L 76.992188 161.722656 L 77.082031 161.574219 L 77.203125 161.367188 L 77.292969 161.21875 L 77.324219 161.160156 L 77.445312 160.953125 L 77.5625 160.746094 L 77.59375 160.683594 L 77.683594 160.535156 L 77.804688 160.328125 L 77.894531 160.179688 L 77.921875 160.152344 L 78.042969 159.945312 L 78.164062 159.734375 L 78.195312 159.675781 L 78.285156 159.527344 L 78.402344 159.320312 L 78.492188 159.144531 L 78.523438 159.113281 L 78.765625 158.699219 L 78.792969 158.640625 L 78.855469 158.519531 L 78.972656 158.3125 L 79.0625 158.132812 L 79.0625 158.105469 L 79.304688 157.691406 L 79.332031 157.601562 L 79.394531 157.480469 L 79.515625 157.273438 L 79.605469 157.097656 L 79.605469 157.066406 L 79.722656 156.859375 L 79.84375 156.652344 L 79.902344 156.5625 L 79.964844 156.445312 L 80.082031 156.238281 L 80.203125 156.027344 L 80.445312 155.613281 L 80.503906 155.523438 L 80.5625 155.40625 L 80.804688 154.992188 Z M 80.292969 154.722656 " fill-opacity="1" fill-rule="evenodd"/></g><g fill="#0d6efd" fill-opacity="1"><g transform="translate(104.113507, 218.624986)"><g><path d="M 4.015625 -11.566406 C 4.015625 -4.015625 8.03125 0 15.582031 0 L 24.574219 0 C 32.125 0 36.140625 -4.015625 36.140625 -11.566406 L 36.140625 -52.683594 C 36.140625 -60.234375 32.125 -64.246094 24.574219 -64.246094 L 15.582031 -64.246094 C 8.03125 -64.246094 4.015625 -60.234375 4.015625 -52.683594 Z M 17.910156 -10.359375 C 15.820312 -10.359375 14.695312 -11.402344 14.695312 -13.574219 L 14.695312 -50.675781 C 14.695312 -52.761719 15.820312 -53.886719 17.910156 -53.886719 L 22.566406 -53.886719 C 24.65625 -53.886719 25.78125 -52.761719 25.78125 -50.675781 L 25.78125 -13.574219 C 25.78125 -11.402344 24.65625 -10.359375 22.566406 -10.359375 Z M 17.910156 -10.359375 "/></g></g></g><g fill="#0d6efd" fill-opacity="1"><g transform="translate(154.226685, 218.624986)"><g><path d="M 4.015625 -1.285156 C 4.015625 -0.480469 4.496094 0 5.300781 0 L 13.652344 0 C 14.535156 0 14.9375 -0.480469 14.9375 -1.285156 L 14.9375 -21.523438 L 24.574219 -21.523438 C 32.125 -21.523438 36.140625 -25.617188 36.140625 -33.085938 L 36.140625 -52.683594 C 36.140625 -60.234375 32.125 -64.246094 24.574219 -64.246094 L 5.300781 -64.246094 C 4.496094 -64.246094 4.015625 -63.765625 4.015625 -62.964844 Z M 14.9375 -32.125 L 14.9375 -53.648438 L 22.003906 -53.648438 C 24.171875 -53.648438 25.21875 -52.523438 25.21875 -50.433594 L 25.21875 -35.335938 C 25.21875 -33.328125 24.171875 -32.125 22.003906 -32.125 Z M 14.9375 -32.125 "/></g></g></g><g fill="#0d6efd" fill-opacity="1"><g transform="translate(204.339862, 218.624986)"><g><path d="M 36.058594 -62.964844 C 36.058594 -63.765625 35.738281 -64.246094 34.773438 -64.246094 L 5.21875 -64.246094 C 4.496094 -64.246094 4.015625 -63.765625 4.015625 -62.964844 L 4.015625 -1.285156 C 4.015625 -0.480469 4.496094 0 5.21875 0 L 34.773438 0 C 35.738281 0 36.058594 -0.480469 36.058594 -1.285156 L 36.058594 -9.316406 C 36.058594 -10.199219 35.738281 -10.601562 34.773438 -10.601562 L 14.695312 -10.601562 L 14.695312 -26.824219 L 30.035156 -26.824219 C 30.839844 -26.824219 31.320312 -27.304688 31.320312 -28.1875 L 31.320312 -36.140625 C 31.320312 -37.023438 30.839844 -37.503906 30.035156 -37.503906 L 14.695312 -37.503906 L 14.695312 -53.566406 L 34.773438 -53.566406 C 35.738281 -53.566406 36.058594 -54.128906 36.058594 -54.933594 Z M 36.058594 -62.964844 "/></g></g></g><g fill="#0d6efd" fill-opacity="1"><g transform="translate(254.37273, 218.624986)"><g><path d="M 37.023438 -52.683594 C 37.023438 -60.234375 33.007812 -64.246094 25.457031 -64.246094 L 5.300781 -64.246094 C 4.496094 -64.246094 4.015625 -63.765625 4.015625 -62.964844 L 4.015625 -1.285156 C 4.015625 -0.480469 4.496094 0 5.300781 0 L 13.652344 0 C 14.457031 0 14.9375 -0.480469 14.9375 -1.285156 L 14.9375 -21.523438 L 20.480469 -21.523438 L 25.859375 -1.125 C 26.019531 -0.402344 26.421875 0 27.226562 0 L 35.578125 0 C 36.460938 0 36.941406 -0.480469 36.703125 -1.445312 L 31.160156 -22.488281 C 35.015625 -24.171875 37.023438 -27.707031 37.023438 -33.085938 Z M 14.9375 -32.125 L 14.9375 -53.648438 L 22.886719 -53.648438 C 24.976562 -53.648438 26.101562 -52.523438 26.101562 -50.433594 L 26.101562 -35.335938 C 26.101562 -33.25 24.976562 -32.125 22.886719 -32.125 Z M 14.9375 -32.125 "/></g></g></g><g fill="#0d6efd" fill-opacity="1"><g transform="translate(305.369316, 218.624986)"><g><path d="M 42.726562 0 C 43.6875 0 44.011719 -0.480469 43.847656 -1.367188 L 30.519531 -63.125 C 30.355469 -63.925781 29.875 -64.246094 29.152344 -64.246094 L 17.988281 -64.246094 C 17.265625 -64.246094 16.785156 -63.925781 16.625 -63.125 L 3.292969 -1.367188 C 3.050781 -0.480469 3.453125 0 4.335938 0 L 12.929688 0 C 13.652344 0 14.054688 -0.402344 14.214844 -1.125 L 16.382812 -12.847656 L 30.679688 -12.847656 L 32.925781 -1.125 C 33.085938 -0.402344 33.488281 0 34.210938 0 Z M 28.671875 -22.164062 L 18.390625 -22.164062 L 23.53125 -50.195312 Z M 28.671875 -22.164062 "/></g></g></g><g fill="#0d6efd" fill-opacity="1"><g transform="translate(362.389042, 218.624986)"><g><path d="M 3.695312 -64.246094 C 2.890625 -64.246094 2.410156 -63.765625 2.410156 -62.964844 L 2.410156 -54.933594 C 2.410156 -54.128906 2.890625 -53.648438 3.695312 -53.648438 L 13.011719 -53.648438 L 13.011719 -1.285156 C 13.011719 -0.402344 13.492188 0 14.296875 0 L 22.648438 0 C 23.53125 0 23.933594 -0.402344 23.933594 -1.285156 L 23.933594 -53.648438 L 33.25 -53.648438 C 34.132812 -53.648438 34.535156 -54.128906 34.535156 -54.933594 L 34.535156 -62.964844 C 34.535156 -63.765625 34.132812 -64.246094 33.25 -64.246094 Z M 3.695312 -64.246094 "/></g></g></g><g fill="#0d6efd" fill-opacity="1"><g transform="translate(409.289879, 218.624986)"><g><path d="M 5.300781 -64.246094 C 4.417969 -64.246094 4.015625 -63.765625 4.015625 -62.964844 L 4.015625 -1.285156 C 4.015625 -0.480469 4.417969 0 5.300781 0 L 13.652344 0 C 14.457031 0 14.9375 -0.480469 14.9375 -1.285156 L 14.9375 -62.964844 C 14.9375 -63.765625 14.457031 -64.246094 13.652344 -64.246094 Z M 5.300781 -64.246094 "/></g></g></g><g fill="#0d6efd" fill-opacity="1"><g transform="translate(438.201613, 218.624986)"><g><path d="M 32.042969 -64.246094 C 31.078125 -64.246094 30.519531 -63.765625 30.277344 -62.800781 L 21.765625 -19.757812 L 13.332031 -62.800781 C 13.089844 -63.765625 12.527344 -64.246094 11.566406 -64.246094 L 3.933594 -64.246094 C 2.730469 -64.246094 2.25 -63.605469 2.488281 -62.480469 L 15.980469 -1.445312 C 16.222656 -0.480469 16.785156 0 17.75 0 L 25.78125 0 C 26.742188 0 27.304688 -0.480469 27.546875 -1.445312 L 41.117188 -62.480469 C 41.359375 -63.605469 40.878906 -64.246094 39.671875 -64.246094 Z M 32.042969 -64.246094 "/></g></g></g><g fill="#0d6efd" fill-opacity="1"><g transform="translate(491.768085, 218.624986)"><g><path d="M 36.058594 -62.964844 C 36.058594 -63.765625 35.738281 -64.246094 34.773438 -64.246094 L 5.21875 -64.246094 C 4.496094 -64.246094 4.015625 -63.765625 4.015625 -62.964844 L 4.015625 -1.285156 C 4.015625 -0.480469 4.496094 0 5.21875 0 L 34.773438 0 C 35.738281 0 36.058594 -0.480469 36.058594 -1.285156 L 36.058594 -9.316406 C 36.058594 -10.199219 35.738281 -10.601562 34.773438 -10.601562 L 14.695312 -10.601562 L 14.695312 -26.824219 L 30.035156 -26.824219 C 30.839844 -26.824219 31.320312 -27.304688 31.320312 -28.1875 L 31.320312 -36.140625 C 31.320312 -37.023438 30.839844 -37.503906 30.035156 -37.503906 L 14.695312 -37.503906 L 14.695312 -53.566406 L 34.773438 -53.566406 C 35.738281 -53.566406 36.058594 -54.128906 36.058594 -54.933594 Z M 36.058594 -62.964844 "/></g></g></g><g fill="#1e3d58" fill-opacity="1"><g transform="translate(541.797072, 218.624986)"><g><path d="M 4.015625 -1.605469 C 4.015625 -0.5625 4.578125 0 5.621094 0 L 12.929688 0 C 13.972656 0 14.535156 -0.5625 14.535156 -1.605469 L 14.535156 -8.996094 C 14.535156 -10.039062 13.972656 -10.601562 12.929688 -10.601562 L 5.621094 -10.601562 C 4.578125 -10.601562 4.015625 -10.039062 4.015625 -8.996094 Z M 4.015625 -1.605469 "/></g></g></g><g fill="#1e3d58" fill-opacity="1"><g transform="translate(570.30725, 218.624986)"><g><path d="M 37.023438 -52.683594 C 37.023438 -60.234375 33.007812 -64.246094 25.457031 -64.246094 L 5.300781 -64.246094 C 4.496094 -64.246094 4.015625 -63.765625 4.015625 -62.964844 L 4.015625 -1.285156 C 4.015625 -0.480469 4.496094 0 5.300781 0 L 13.652344 0 C 14.457031 0 14.9375 -0.480469 14.9375 -1.285156 L 14.9375 -21.523438 L 20.480469 -21.523438 L 25.859375 -1.125 C 26.019531 -0.402344 26.421875 0 27.226562 0 L 35.578125 0 C 36.460938 0 36.941406 -0.480469 36.703125 -1.445312 L 31.160156 -22.488281 C 35.015625 -24.171875 37.023438 -27.707031 37.023438 -33.085938 Z M 14.9375 -32.125 L 14.9375 -53.648438 L 22.886719 -53.648438 C 24.976562 -53.648438 26.101562 -52.523438 26.101562 -50.433594 L 26.101562 -35.335938 C 26.101562 -33.25 24.976562 -32.125 22.886719 -32.125 Z M 14.9375 -32.125 "/></g></g></g><g fill="#1e3d58" fill-opacity="1"><g transform="translate(621.303831, 218.624986)"><g><path d="M 47.945312 -64.246094 C 46.980469 -64.246094 46.339844 -63.6875 46.257812 -62.722656 L 42.964844 -25.136719 L 42.5625 -25.136719 L 34.695312 -62.800781 C 34.453125 -63.765625 33.890625 -64.246094 32.925781 -64.246094 L 28.109375 -64.246094 C 27.144531 -64.246094 26.582031 -63.765625 26.339844 -62.800781 L 18.390625 -25.136719 L 17.988281 -25.136719 L 14.855469 -62.722656 C 14.777344 -63.6875 14.132812 -64.246094 13.171875 -64.246094 L 5.542969 -64.246094 C 4.496094 -64.246094 3.933594 -63.605469 4.015625 -62.5625 L 10.601562 -1.527344 C 10.679688 -0.480469 11.242188 0 12.289062 0 L 20.320312 0 C 21.28125 0 21.84375 -0.480469 22.085938 -1.367188 L 30.519531 -37.746094 L 38.871094 -1.445312 C 39.109375 -0.480469 39.671875 0 40.636719 0 L 48.507812 0 C 49.550781 0 50.113281 -0.480469 50.195312 -1.527344 L 57.101562 -62.5625 C 57.179688 -63.605469 56.617188 -64.246094 55.574219 -64.246094 Z M 47.945312 -64.246094 "/></g></g></g></svg>